<mxfile host="app.diagrams.net" modified="2023-03-31T14:47:05.169Z" agent="Mozilla/5.0 (Windows NT 10.0; Win64; x64) AppleWebKit/537.36 (KHTML, like Gecko) Chrome/111.0.0.0 Safari/537.36" etag="QADHqQEpnEBrdnFMXvYV" version="21.1.1" type="google" pages="3">
  <diagram id="cht08Sx6rMtbBWIcGeOf" name="Hardware">
    <mxGraphModel grid="1" page="1" gridSize="10" guides="1" tooltips="1" connect="1" arrows="1" fold="1" pageScale="1" pageWidth="850" pageHeight="1100" math="0" shadow="0">
      <root>
        <mxCell id="0" />
        <mxCell id="1" parent="0" />
        <mxCell id="wdVhG9PbO-ZtxWnEt1wb-10" style="edgeStyle=orthogonalEdgeStyle;rounded=0;orthogonalLoop=1;jettySize=auto;html=1;entryX=0;entryY=0.25;entryDx=0;entryDy=0;" edge="1" parent="1" source="PqSJHG23r1IrJSX_8wj1-5" target="PqSJHG23r1IrJSX_8wj1-8">
          <mxGeometry relative="1" as="geometry" />
        </mxCell>
        <mxCell id="4GnLdgJhROQ5FufntM6D-9" style="edgeStyle=orthogonalEdgeStyle;rounded=0;orthogonalLoop=1;jettySize=auto;html=1;entryX=0.011;entryY=0.633;entryDx=0;entryDy=0;entryPerimeter=0;" edge="1" parent="1" source="PqSJHG23r1IrJSX_8wj1-5" target="PqSJHG23r1IrJSX_8wj1-8">
          <mxGeometry relative="1" as="geometry" />
        </mxCell>
        <mxCell id="PqSJHG23r1IrJSX_8wj1-5" value="LDO&lt;br&gt;Reducer serial forbundet batteri til 5 volt" style="rounded=0;whiteSpace=wrap;html=1;" vertex="1" parent="1">
          <mxGeometry x="260" y="90" width="120" height="60" as="geometry" />
        </mxCell>
        <mxCell id="PqSJHG23r1IrJSX_8wj1-6" style="edgeStyle=orthogonalEdgeStyle;rounded=0;orthogonalLoop=1;jettySize=auto;html=1;entryX=0;entryY=0.75;entryDx=0;entryDy=0;" edge="1" parent="1" target="PqSJHG23r1IrJSX_8wj1-5">
          <mxGeometry relative="1" as="geometry" />
        </mxCell>
        <mxCell id="PqSJHG23r1IrJSX_8wj1-8" value="ESP32&lt;br&gt;3.3-5 V" style="shape=process;whiteSpace=wrap;html=1;backgroundOutline=1;" vertex="1" parent="1">
          <mxGeometry x="460" y="40" width="120" height="60" as="geometry" />
        </mxCell>
        <mxCell id="PqSJHG23r1IrJSX_8wj1-7" style="edgeStyle=orthogonalEdgeStyle;rounded=0;orthogonalLoop=1;jettySize=auto;html=1;entryX=0;entryY=0.5;entryDx=0;entryDy=0;" edge="1" parent="1" target="PqSJHG23r1IrJSX_8wj1-5">
          <mxGeometry relative="1" as="geometry" />
        </mxCell>
        <mxCell id="wdVhG9PbO-ZtxWnEt1wb-1" style="edgeStyle=orthogonalEdgeStyle;rounded=0;orthogonalLoop=1;jettySize=auto;html=1;" edge="1" parent="1" source="wdVhG9PbO-ZtxWnEt1wb-2" target="wdVhG9PbO-ZtxWnEt1wb-3">
          <mxGeometry relative="1" as="geometry">
            <Array as="points">
              <mxPoint x="110" y="140" />
              <mxPoint x="110" y="140" />
            </Array>
          </mxGeometry>
        </mxCell>
        <mxCell id="wdVhG9PbO-ZtxWnEt1wb-8" style="edgeStyle=orthogonalEdgeStyle;rounded=0;orthogonalLoop=1;jettySize=auto;html=1;entryX=0;entryY=0.25;entryDx=0;entryDy=0;" edge="1" parent="1" source="wdVhG9PbO-ZtxWnEt1wb-2" target="PqSJHG23r1IrJSX_8wj1-5">
          <mxGeometry relative="1" as="geometry" />
        </mxCell>
        <mxCell id="wdVhG9PbO-ZtxWnEt1wb-13" value="" style="edgeStyle=orthogonalEdgeStyle;rounded=0;orthogonalLoop=1;jettySize=auto;html=1;" edge="1" parent="1" source="wdVhG9PbO-ZtxWnEt1wb-2" target="wdVhG9PbO-ZtxWnEt1wb-3">
          <mxGeometry relative="1" as="geometry" />
        </mxCell>
        <mxCell id="wdVhG9PbO-ZtxWnEt1wb-2" value="LiPo batteri &lt;br&gt;3 - 4.2 V&lt;br&gt;3.7 V Gennemsnit&lt;br&gt;1800mAh" style="rounded=0;whiteSpace=wrap;html=1;" vertex="1" parent="1">
          <mxGeometry x="50" y="50" width="120" height="60" as="geometry" />
        </mxCell>
        <mxCell id="wdVhG9PbO-ZtxWnEt1wb-9" style="edgeStyle=orthogonalEdgeStyle;rounded=0;orthogonalLoop=1;jettySize=auto;html=1;entryX=0;entryY=0.75;entryDx=0;entryDy=0;" edge="1" parent="1" source="wdVhG9PbO-ZtxWnEt1wb-3" target="PqSJHG23r1IrJSX_8wj1-5">
          <mxGeometry relative="1" as="geometry" />
        </mxCell>
        <mxCell id="wdVhG9PbO-ZtxWnEt1wb-3" value="LiPo batteri &lt;br&gt;3 - 4.2 V&lt;br&gt;3.7 V Gennemsnit&lt;br&gt;1800mAh" style="rounded=0;whiteSpace=wrap;html=1;" vertex="1" parent="1">
          <mxGeometry x="50" y="180" width="120" height="60" as="geometry" />
        </mxCell>
        <mxCell id="wdVhG9PbO-ZtxWnEt1wb-4" value="MQ 135 Røg sensor&lt;br&gt;150mAh&lt;br&gt;5 V" style="whiteSpace=wrap;html=1;aspect=fixed;" vertex="1" parent="1">
          <mxGeometry x="520" y="320" width="80" height="80" as="geometry" />
        </mxCell>
        <mxCell id="wdVhG9PbO-ZtxWnEt1wb-14" value="- til +" style="text;html=1;align=center;verticalAlign=middle;resizable=0;points=[];autosize=1;strokeColor=none;fillColor=none;" vertex="1" parent="1">
          <mxGeometry x="110" y="130" width="50" height="30" as="geometry" />
        </mxCell>
        <mxCell id="wdVhG9PbO-ZtxWnEt1wb-15" value="+" style="text;html=1;align=center;verticalAlign=middle;resizable=0;points=[];autosize=1;strokeColor=none;fillColor=none;" vertex="1" parent="1">
          <mxGeometry x="175" y="50" width="30" height="30" as="geometry" />
        </mxCell>
        <mxCell id="wdVhG9PbO-ZtxWnEt1wb-16" value="-" style="text;html=1;align=center;verticalAlign=middle;resizable=0;points=[];autosize=1;strokeColor=none;fillColor=none;" vertex="1" parent="1">
          <mxGeometry x="170" y="180" width="30" height="30" as="geometry" />
        </mxCell>
        <mxCell id="wdVhG9PbO-ZtxWnEt1wb-18" style="edgeStyle=orthogonalEdgeStyle;rounded=0;orthogonalLoop=1;jettySize=auto;html=1;" edge="1" parent="1" source="wdVhG9PbO-ZtxWnEt1wb-17">
          <mxGeometry relative="1" as="geometry">
            <mxPoint x="230" y="110" as="targetPoint" />
          </mxGeometry>
        </mxCell>
        <mxCell id="wdVhG9PbO-ZtxWnEt1wb-17" value="7.4 V Gennemsnit&lt;br&gt;Serial forbundet batteri" style="text;html=1;align=center;verticalAlign=middle;resizable=0;points=[];autosize=1;strokeColor=none;fillColor=none;" vertex="1" parent="1">
          <mxGeometry x="195" y="25" width="140" height="40" as="geometry" />
        </mxCell>
        <mxCell id="wdVhG9PbO-ZtxWnEt1wb-24" value="+" style="text;html=1;align=center;verticalAlign=middle;resizable=0;points=[];autosize=1;strokeColor=none;fillColor=none;" vertex="1" parent="1">
          <mxGeometry x="360" y="200" width="30" height="30" as="geometry" />
        </mxCell>
        <mxCell id="wdVhG9PbO-ZtxWnEt1wb-25" value="-" style="text;html=1;align=center;verticalAlign=middle;resizable=0;points=[];autosize=1;strokeColor=none;fillColor=none;" vertex="1" parent="1">
          <mxGeometry x="360" y="260" width="30" height="30" as="geometry" />
        </mxCell>
        <mxCell id="wdVhG9PbO-ZtxWnEt1wb-27" value="Pin opsættning venter vi med indtil vi har en fysisk opsættelse" style="whiteSpace=wrap;html=1;aspect=fixed;" vertex="1" parent="1">
          <mxGeometry x="120" y="270" width="110" height="110" as="geometry" />
        </mxCell>
        <mxCell id="4GnLdgJhROQ5FufntM6D-3" value="" style="endArrow=classic;startArrow=classic;html=1;rounded=0;exitX=-0.067;exitY=0.067;exitDx=0;exitDy=0;exitPerimeter=0;entryX=0;entryY=0.25;entryDx=0;entryDy=0;" edge="1" parent="1">
          <mxGeometry width="50" height="50" relative="1" as="geometry">
            <mxPoint x="357.99" y="232.01" as="sourcePoint" />
            <mxPoint x="510" y="168.75" as="targetPoint" />
            <Array as="points">
              <mxPoint x="410" y="230" />
              <mxPoint x="440" y="230" />
              <mxPoint x="440" y="170" />
            </Array>
          </mxGeometry>
        </mxCell>
        <mxCell id="4GnLdgJhROQ5FufntM6D-4" value="" style="endArrow=classic;startArrow=classic;html=1;rounded=0;exitX=-0.111;exitY=0.956;exitDx=0;exitDy=0;exitPerimeter=0;" edge="1" parent="1">
          <mxGeometry width="50" height="50" relative="1" as="geometry">
            <mxPoint x="356.6700000000001" y="258.67999999999995" as="sourcePoint" />
            <mxPoint x="510" y="220" as="targetPoint" />
            <Array as="points">
              <mxPoint x="430" y="260" />
              <mxPoint x="490" y="260" />
              <mxPoint x="490" y="220" />
            </Array>
          </mxGeometry>
        </mxCell>
        <mxCell id="4GnLdgJhROQ5FufntM6D-8" value="5 volt pin" style="text;html=1;align=center;verticalAlign=middle;resizable=0;points=[];autosize=1;strokeColor=none;fillColor=none;" vertex="1" parent="1">
          <mxGeometry x="395" y="15" width="70" height="30" as="geometry" />
        </mxCell>
        <mxCell id="4GnLdgJhROQ5FufntM6D-10" value="Ground pin" style="text;html=1;align=center;verticalAlign=middle;resizable=0;points=[];autosize=1;strokeColor=none;fillColor=none;" vertex="1" parent="1">
          <mxGeometry x="410" y="95" width="80" height="30" as="geometry" />
        </mxCell>
        <mxCell id="bICxV2Dl_RaOIShKPeEX-1" value="Stabil strøm gennem &lt;br&gt;kondensator" style="text;html=1;align=center;verticalAlign=middle;resizable=0;points=[];autosize=1;strokeColor=none;fillColor=none;" vertex="1" parent="1">
          <mxGeometry x="280" y="160" width="130" height="40" as="geometry" />
        </mxCell>
        <mxCell id="bICxV2Dl_RaOIShKPeEX-5" value="AD" style="text;html=1;align=center;verticalAlign=middle;resizable=0;points=[];autosize=1;strokeColor=none;fillColor=none;" vertex="1" parent="1">
          <mxGeometry x="590" y="295" width="40" height="30" as="geometry" />
        </mxCell>
        <mxCell id="PUn33nfPiZZp9KQ5Z-89-1" value="+" style="text;html=1;align=center;verticalAlign=middle;resizable=0;points=[];autosize=1;strokeColor=none;fillColor=none;" vertex="1" parent="1">
          <mxGeometry x="475" y="145" width="30" height="30" as="geometry" />
        </mxCell>
        <mxCell id="PUn33nfPiZZp9KQ5Z-89-4" value="" style="endArrow=classic;startArrow=classic;html=1;rounded=0;entryX=0.015;entryY=0.658;entryDx=0;entryDy=0;entryPerimeter=0;" edge="1" parent="1">
          <mxGeometry width="50" height="50" relative="1" as="geometry">
            <mxPoint x="360" y="280" as="sourcePoint" />
            <mxPoint x="511.95000000000005" y="199.35000000000002" as="targetPoint" />
            <Array as="points">
              <mxPoint x="440" y="280" />
              <mxPoint x="440" y="200" />
            </Array>
          </mxGeometry>
        </mxCell>
      </root>
    </mxGraphModel>
  </diagram>
  <diagram id="C5RBs43oDa-KdzZeNtuy" name="Software">
    <mxGraphModel grid="1" page="1" gridSize="10" guides="1" tooltips="1" connect="1" arrows="1" fold="1" pageScale="1" pageWidth="827" pageHeight="1169" math="0" shadow="0">
      <root>
        <mxCell id="WIyWlLk6GJQsqaUBKTNV-0" />
        <mxCell id="WIyWlLk6GJQsqaUBKTNV-1" parent="WIyWlLk6GJQsqaUBKTNV-0" />
        <mxCell id="S6wTLcBWOWjdzUBLz-QY-0" style="edgeStyle=orthogonalEdgeStyle;rounded=0;orthogonalLoop=1;jettySize=auto;html=1;entryX=0.5;entryY=0;entryDx=0;entryDy=0;" edge="1" parent="WIyWlLk6GJQsqaUBKTNV-1" source="S6wTLcBWOWjdzUBLz-QY-1" target="S6wTLcBWOWjdzUBLz-QY-3">
          <mxGeometry relative="1" as="geometry" />
        </mxCell>
        <mxCell id="S6wTLcBWOWjdzUBLz-QY-1" value="Start process&amp;nbsp;" style="ellipse;whiteSpace=wrap;html=1;" vertex="1" parent="WIyWlLk6GJQsqaUBKTNV-1">
          <mxGeometry x="-240" width="120" height="80" as="geometry" />
        </mxCell>
        <mxCell id="S6wTLcBWOWjdzUBLz-QY-2" style="edgeStyle=orthogonalEdgeStyle;rounded=0;orthogonalLoop=1;jettySize=auto;html=1;exitX=0.5;exitY=1;exitDx=0;exitDy=0;entryX=0.5;entryY=0;entryDx=0;entryDy=0;entryPerimeter=0;" edge="1" parent="WIyWlLk6GJQsqaUBKTNV-1" source="S6wTLcBWOWjdzUBLz-QY-3" target="S6wTLcBWOWjdzUBLz-QY-73">
          <mxGeometry relative="1" as="geometry" />
        </mxCell>
        <mxCell id="S6wTLcBWOWjdzUBLz-QY-3" value="The order of Loading Processes and scripts" style="shape=process;whiteSpace=wrap;html=1;backgroundOutline=1;" vertex="1" parent="WIyWlLk6GJQsqaUBKTNV-1">
          <mxGeometry x="-240" y="110" width="120" height="60" as="geometry" />
        </mxCell>
        <mxCell id="S6wTLcBWOWjdzUBLz-QY-4" style="edgeStyle=orthogonalEdgeStyle;rounded=0;orthogonalLoop=1;jettySize=auto;html=1;" edge="1" parent="WIyWlLk6GJQsqaUBKTNV-1" source="S6wTLcBWOWjdzUBLz-QY-5" target="S6wTLcBWOWjdzUBLz-QY-13">
          <mxGeometry relative="1" as="geometry" />
        </mxCell>
        <mxCell id="S6wTLcBWOWjdzUBLz-QY-5" value="SQLite Database" style="ellipse;whiteSpace=wrap;html=1;" vertex="1" parent="WIyWlLk6GJQsqaUBKTNV-1">
          <mxGeometry x="148" width="120" height="80" as="geometry" />
        </mxCell>
        <mxCell id="S6wTLcBWOWjdzUBLz-QY-6" style="edgeStyle=orthogonalEdgeStyle;rounded=0;orthogonalLoop=1;jettySize=auto;html=1;" edge="1" parent="WIyWlLk6GJQsqaUBKTNV-1" source="S6wTLcBWOWjdzUBLz-QY-7" target="S6wTLcBWOWjdzUBLz-QY-16">
          <mxGeometry relative="1" as="geometry" />
        </mxCell>
        <mxCell id="S6wTLcBWOWjdzUBLz-QY-7" value="RPI RaspBerryPi" style="ellipse;whiteSpace=wrap;html=1;" vertex="1" parent="WIyWlLk6GJQsqaUBKTNV-1">
          <mxGeometry x="490" width="120" height="80" as="geometry" />
        </mxCell>
        <mxCell id="S6wTLcBWOWjdzUBLz-QY-8" style="edgeStyle=orthogonalEdgeStyle;rounded=0;orthogonalLoop=1;jettySize=auto;html=1;entryX=0.5;entryY=0;entryDx=0;entryDy=0;" edge="1" parent="WIyWlLk6GJQsqaUBKTNV-1" source="S6wTLcBWOWjdzUBLz-QY-9" target="S6wTLcBWOWjdzUBLz-QY-18">
          <mxGeometry relative="1" as="geometry" />
        </mxCell>
        <mxCell id="S6wTLcBWOWjdzUBLz-QY-9" value="HTML" style="ellipse;whiteSpace=wrap;html=1;" vertex="1" parent="WIyWlLk6GJQsqaUBKTNV-1">
          <mxGeometry x="740" width="120" height="80" as="geometry" />
        </mxCell>
        <mxCell id="S6wTLcBWOWjdzUBLz-QY-10" style="edgeStyle=orthogonalEdgeStyle;rounded=0;orthogonalLoop=1;jettySize=auto;html=1;" edge="1" parent="WIyWlLk6GJQsqaUBKTNV-1" source="S6wTLcBWOWjdzUBLz-QY-11" target="S6wTLcBWOWjdzUBLz-QY-20">
          <mxGeometry relative="1" as="geometry" />
        </mxCell>
        <mxCell id="S6wTLcBWOWjdzUBLz-QY-11" value="&lt;div&gt;ESP32 Main&lt;/div&gt;" style="ellipse;whiteSpace=wrap;html=1;" vertex="1" parent="WIyWlLk6GJQsqaUBKTNV-1">
          <mxGeometry x="980" width="120" height="80" as="geometry" />
        </mxCell>
        <mxCell id="S6wTLcBWOWjdzUBLz-QY-12" style="edgeStyle=orthogonalEdgeStyle;rounded=0;orthogonalLoop=1;jettySize=auto;html=1;entryX=0.5;entryY=0;entryDx=0;entryDy=0;entryPerimeter=0;" edge="1" parent="WIyWlLk6GJQsqaUBKTNV-1" source="S6wTLcBWOWjdzUBLz-QY-13" target="S6wTLcBWOWjdzUBLz-QY-58">
          <mxGeometry relative="1" as="geometry" />
        </mxCell>
        <mxCell id="S6wTLcBWOWjdzUBLz-QY-13" value="Database lister pre-oprettede på RPI" style="shape=process;whiteSpace=wrap;html=1;backgroundOutline=1;" vertex="1" parent="WIyWlLk6GJQsqaUBKTNV-1">
          <mxGeometry x="148" y="110" width="120" height="60" as="geometry" />
        </mxCell>
        <mxCell id="S6wTLcBWOWjdzUBLz-QY-14" style="edgeStyle=orthogonalEdgeStyle;rounded=0;orthogonalLoop=1;jettySize=auto;html=1;" edge="1" parent="WIyWlLk6GJQsqaUBKTNV-1" source="S6wTLcBWOWjdzUBLz-QY-16" target="S6wTLcBWOWjdzUBLz-QY-51">
          <mxGeometry relative="1" as="geometry" />
        </mxCell>
        <mxCell id="S6wTLcBWOWjdzUBLz-QY-15" style="edgeStyle=orthogonalEdgeStyle;rounded=0;orthogonalLoop=1;jettySize=auto;html=1;entryX=1;entryY=0.5;entryDx=0;entryDy=0;" edge="1" parent="WIyWlLk6GJQsqaUBKTNV-1" source="S6wTLcBWOWjdzUBLz-QY-16" target="S6wTLcBWOWjdzUBLz-QY-5">
          <mxGeometry relative="1" as="geometry">
            <Array as="points">
              <mxPoint x="550" y="190" />
              <mxPoint x="379" y="190" />
              <mxPoint x="379" y="40" />
            </Array>
          </mxGeometry>
        </mxCell>
        <mxCell id="S6wTLcBWOWjdzUBLz-QY-16" value="Load boot, connection, SSH" style="shape=process;whiteSpace=wrap;html=1;backgroundOutline=1;" vertex="1" parent="WIyWlLk6GJQsqaUBKTNV-1">
          <mxGeometry x="490" y="110" width="120" height="60" as="geometry" />
        </mxCell>
        <mxCell id="S6wTLcBWOWjdzUBLz-QY-17" style="edgeStyle=orthogonalEdgeStyle;rounded=0;orthogonalLoop=1;jettySize=auto;html=1;entryX=0.5;entryY=0;entryDx=0;entryDy=0;entryPerimeter=0;" edge="1" parent="WIyWlLk6GJQsqaUBKTNV-1" source="S6wTLcBWOWjdzUBLz-QY-18" target="S6wTLcBWOWjdzUBLz-QY-46">
          <mxGeometry relative="1" as="geometry" />
        </mxCell>
        <mxCell id="S6wTLcBWOWjdzUBLz-QY-18" value="Load CSS, Graph page, Index page. Main Page" style="shape=process;whiteSpace=wrap;html=1;backgroundOutline=1;" vertex="1" parent="WIyWlLk6GJQsqaUBKTNV-1">
          <mxGeometry x="740" y="110" width="120" height="60" as="geometry" />
        </mxCell>
        <mxCell id="S6wTLcBWOWjdzUBLz-QY-19" style="edgeStyle=orthogonalEdgeStyle;rounded=0;orthogonalLoop=1;jettySize=auto;html=1;" edge="1" parent="WIyWlLk6GJQsqaUBKTNV-1" source="S6wTLcBWOWjdzUBLz-QY-20" target="S6wTLcBWOWjdzUBLz-QY-23">
          <mxGeometry relative="1" as="geometry" />
        </mxCell>
        <mxCell id="S6wTLcBWOWjdzUBLz-QY-20" value="Load Main, System, Libary. kodes" style="shape=process;whiteSpace=wrap;html=1;backgroundOutline=1;" vertex="1" parent="WIyWlLk6GJQsqaUBKTNV-1">
          <mxGeometry x="980" y="110" width="120" height="60" as="geometry" />
        </mxCell>
        <mxCell id="S6wTLcBWOWjdzUBLz-QY-21" style="edgeStyle=orthogonalEdgeStyle;rounded=0;orthogonalLoop=1;jettySize=auto;html=1;exitX=1;exitY=0.5;exitDx=0;exitDy=0;" edge="1" parent="WIyWlLk6GJQsqaUBKTNV-1" source="S6wTLcBWOWjdzUBLz-QY-23" target="S6wTLcBWOWjdzUBLz-QY-24">
          <mxGeometry relative="1" as="geometry" />
        </mxCell>
        <mxCell id="S6wTLcBWOWjdzUBLz-QY-22" style="edgeStyle=orthogonalEdgeStyle;rounded=0;orthogonalLoop=1;jettySize=auto;html=1;" edge="1" parent="WIyWlLk6GJQsqaUBKTNV-1" source="S6wTLcBWOWjdzUBLz-QY-23" target="S6wTLcBWOWjdzUBLz-QY-27">
          <mxGeometry relative="1" as="geometry" />
        </mxCell>
        <mxCell id="S6wTLcBWOWjdzUBLz-QY-23" value="Pre defined parameter ud fra tempratur, fugt og røg" style="rhombus;whiteSpace=wrap;html=1;" vertex="1" parent="WIyWlLk6GJQsqaUBKTNV-1">
          <mxGeometry x="960" y="190" width="120" height="110" as="geometry" />
        </mxCell>
        <mxCell id="S6wTLcBWOWjdzUBLz-QY-24" value="Slut / shutdown ESP32" style="rounded=0;whiteSpace=wrap;html=1;" vertex="1" parent="WIyWlLk6GJQsqaUBKTNV-1">
          <mxGeometry x="1130" y="230" width="120" height="60" as="geometry" />
        </mxCell>
        <mxCell id="S6wTLcBWOWjdzUBLz-QY-25" value="Nej" style="text;html=1;strokeColor=none;fillColor=none;align=center;verticalAlign=middle;whiteSpace=wrap;rounded=0;" vertex="1" parent="WIyWlLk6GJQsqaUBKTNV-1">
          <mxGeometry x="1070" y="230" width="60" height="30" as="geometry" />
        </mxCell>
        <mxCell id="S6wTLcBWOWjdzUBLz-QY-26" style="edgeStyle=orthogonalEdgeStyle;rounded=0;orthogonalLoop=1;jettySize=auto;html=1;entryX=0.5;entryY=0;entryDx=0;entryDy=0;" edge="1" parent="WIyWlLk6GJQsqaUBKTNV-1" source="S6wTLcBWOWjdzUBLz-QY-27" target="S6wTLcBWOWjdzUBLz-QY-30">
          <mxGeometry relative="1" as="geometry" />
        </mxCell>
        <mxCell id="S6wTLcBWOWjdzUBLz-QY-27" value="Try" style="rounded=1;whiteSpace=wrap;html=1;absoluteArcSize=1;arcSize=14;strokeWidth=2;" vertex="1" parent="WIyWlLk6GJQsqaUBKTNV-1">
          <mxGeometry x="1010" y="320" width="60" height="60" as="geometry" />
        </mxCell>
        <mxCell id="S6wTLcBWOWjdzUBLz-QY-28" value="Ja" style="text;html=1;strokeColor=none;fillColor=none;align=center;verticalAlign=middle;whiteSpace=wrap;rounded=0;" vertex="1" parent="WIyWlLk6GJQsqaUBKTNV-1">
          <mxGeometry x="1000" y="290" width="60" height="30" as="geometry" />
        </mxCell>
        <mxCell id="S6wTLcBWOWjdzUBLz-QY-29" style="edgeStyle=orthogonalEdgeStyle;rounded=0;orthogonalLoop=1;jettySize=auto;html=1;" edge="1" parent="WIyWlLk6GJQsqaUBKTNV-1" source="S6wTLcBWOWjdzUBLz-QY-30" target="S6wTLcBWOWjdzUBLz-QY-33">
          <mxGeometry relative="1" as="geometry" />
        </mxCell>
        <mxCell id="S6wTLcBWOWjdzUBLz-QY-30" value="Kode" style="rounded=1;whiteSpace=wrap;html=1;absoluteArcSize=1;arcSize=14;strokeWidth=2;" vertex="1" parent="WIyWlLk6GJQsqaUBKTNV-1">
          <mxGeometry x="1010" y="410" width="60" height="60" as="geometry" />
        </mxCell>
        <mxCell id="S6wTLcBWOWjdzUBLz-QY-31" style="edgeStyle=orthogonalEdgeStyle;rounded=0;orthogonalLoop=1;jettySize=auto;html=1;" edge="1" parent="WIyWlLk6GJQsqaUBKTNV-1" source="S6wTLcBWOWjdzUBLz-QY-33" target="S6wTLcBWOWjdzUBLz-QY-34">
          <mxGeometry relative="1" as="geometry" />
        </mxCell>
        <mxCell id="S6wTLcBWOWjdzUBLz-QY-32" style="edgeStyle=orthogonalEdgeStyle;rounded=0;orthogonalLoop=1;jettySize=auto;html=1;exitX=0;exitY=0.5;exitDx=0;exitDy=0;exitPerimeter=0;entryX=0;entryY=0.5;entryDx=0;entryDy=0;" edge="1" parent="WIyWlLk6GJQsqaUBKTNV-1" source="S6wTLcBWOWjdzUBLz-QY-33" target="S6wTLcBWOWjdzUBLz-QY-93">
          <mxGeometry relative="1" as="geometry">
            <Array as="points">
              <mxPoint x="970" y="540" />
              <mxPoint x="970" y="710" />
            </Array>
          </mxGeometry>
        </mxCell>
        <mxCell id="S6wTLcBWOWjdzUBLz-QY-33" value="MålData" style="strokeWidth=2;html=1;shape=mxgraph.flowchart.decision;whiteSpace=wrap;" vertex="1" parent="WIyWlLk6GJQsqaUBKTNV-1">
          <mxGeometry x="1000" y="500" width="80" height="80" as="geometry" />
        </mxCell>
        <mxCell id="S6wTLcBWOWjdzUBLz-QY-34" value="MålData" style="verticalLabelPosition=bottom;verticalAlign=top;html=1;shape=process;whiteSpace=wrap;rounded=1;size=0.14;arcSize=6;" vertex="1" parent="WIyWlLk6GJQsqaUBKTNV-1">
          <mxGeometry x="990" y="610" width="100" height="60" as="geometry" />
        </mxCell>
        <mxCell id="S6wTLcBWOWjdzUBLz-QY-35" value="" style="verticalLabelPosition=bottom;verticalAlign=top;html=1;strokeWidth=2;shape=mxgraph.arrows2.arrow;dy=1;dx=19;notch=0;" vertex="1" parent="WIyWlLk6GJQsqaUBKTNV-1">
          <mxGeometry x="1100" y="605" width="100" height="70" as="geometry" />
        </mxCell>
        <mxCell id="S6wTLcBWOWjdzUBLz-QY-36" style="edgeStyle=orthogonalEdgeStyle;rounded=0;orthogonalLoop=1;jettySize=auto;html=1;entryX=0;entryY=0.5;entryDx=0;entryDy=0;entryPerimeter=0;" edge="1" parent="WIyWlLk6GJQsqaUBKTNV-1" source="S6wTLcBWOWjdzUBLz-QY-37" target="S6wTLcBWOWjdzUBLz-QY-90">
          <mxGeometry relative="1" as="geometry" />
        </mxCell>
        <mxCell id="S6wTLcBWOWjdzUBLz-QY-37" value="DataBase" style="strokeWidth=2;html=1;shape=mxgraph.flowchart.database;whiteSpace=wrap;" vertex="1" parent="WIyWlLk6GJQsqaUBKTNV-1">
          <mxGeometry x="1220" y="605" width="60" height="60" as="geometry" />
        </mxCell>
        <mxCell id="S6wTLcBWOWjdzUBLz-QY-38" value="Transfer" style="text;html=1;strokeColor=none;fillColor=none;align=center;verticalAlign=middle;whiteSpace=wrap;rounded=0;" vertex="1" parent="WIyWlLk6GJQsqaUBKTNV-1">
          <mxGeometry x="1110" y="605" width="60" height="30" as="geometry" />
        </mxCell>
        <mxCell id="S6wTLcBWOWjdzUBLz-QY-39" style="edgeStyle=orthogonalEdgeStyle;rounded=0;orthogonalLoop=1;jettySize=auto;html=1;entryX=0.5;entryY=0;entryDx=0;entryDy=0;" edge="1" parent="WIyWlLk6GJQsqaUBKTNV-1" source="S6wTLcBWOWjdzUBLz-QY-41" target="S6wTLcBWOWjdzUBLz-QY-42">
          <mxGeometry relative="1" as="geometry" />
        </mxCell>
        <mxCell id="S6wTLcBWOWjdzUBLz-QY-40" style="edgeStyle=orthogonalEdgeStyle;rounded=0;orthogonalLoop=1;jettySize=auto;html=1;" edge="1" parent="WIyWlLk6GJQsqaUBKTNV-1" source="S6wTLcBWOWjdzUBLz-QY-41">
          <mxGeometry relative="1" as="geometry">
            <mxPoint x="800" y="330" as="targetPoint" />
            <Array as="points">
              <mxPoint x="880" y="400" />
              <mxPoint x="880" y="330" />
              <mxPoint x="860" y="330" />
            </Array>
          </mxGeometry>
        </mxCell>
        <mxCell id="S6wTLcBWOWjdzUBLz-QY-41" value="Oprethold Hjemmeside?" style="strokeWidth=2;html=1;shape=mxgraph.flowchart.decision;whiteSpace=wrap;" vertex="1" parent="WIyWlLk6GJQsqaUBKTNV-1">
          <mxGeometry x="750" y="350" width="100" height="100" as="geometry" />
        </mxCell>
        <mxCell id="S6wTLcBWOWjdzUBLz-QY-42" value="Slut" style="ellipse;whiteSpace=wrap;html=1;" vertex="1" parent="WIyWlLk6GJQsqaUBKTNV-1">
          <mxGeometry x="740" y="500" width="120" height="80" as="geometry" />
        </mxCell>
        <mxCell id="S6wTLcBWOWjdzUBLz-QY-43" value="Nej" style="text;html=1;strokeColor=none;fillColor=none;align=center;verticalAlign=middle;whiteSpace=wrap;rounded=0;" vertex="1" parent="WIyWlLk6GJQsqaUBKTNV-1">
          <mxGeometry x="750" y="450" width="60" height="30" as="geometry" />
        </mxCell>
        <mxCell id="S6wTLcBWOWjdzUBLz-QY-44" value="Ja" style="text;html=1;strokeColor=none;fillColor=none;align=center;verticalAlign=middle;whiteSpace=wrap;rounded=0;" vertex="1" parent="WIyWlLk6GJQsqaUBKTNV-1">
          <mxGeometry x="830" y="360" width="60" height="30" as="geometry" />
        </mxCell>
        <mxCell id="S6wTLcBWOWjdzUBLz-QY-45" style="edgeStyle=orthogonalEdgeStyle;rounded=0;orthogonalLoop=1;jettySize=auto;html=1;" edge="1" parent="WIyWlLk6GJQsqaUBKTNV-1" source="S6wTLcBWOWjdzUBLz-QY-46" target="S6wTLcBWOWjdzUBLz-QY-41">
          <mxGeometry relative="1" as="geometry" />
        </mxCell>
        <mxCell id="S6wTLcBWOWjdzUBLz-QY-46" value="RPI Runining" style="verticalLabelPosition=bottom;verticalAlign=top;html=1;shape=mxgraph.flowchart.on-page_reference;" vertex="1" parent="WIyWlLk6GJQsqaUBKTNV-1">
          <mxGeometry x="770" y="215" width="60" height="60" as="geometry" />
        </mxCell>
        <mxCell id="S6wTLcBWOWjdzUBLz-QY-47" style="edgeStyle=orthogonalEdgeStyle;rounded=0;orthogonalLoop=1;jettySize=auto;html=1;entryX=1;entryY=0.5;entryDx=0;entryDy=0;entryPerimeter=0;" edge="1" parent="WIyWlLk6GJQsqaUBKTNV-1" source="S6wTLcBWOWjdzUBLz-QY-48" target="S6wTLcBWOWjdzUBLz-QY-51">
          <mxGeometry relative="1" as="geometry">
            <Array as="points">
              <mxPoint x="615" y="380" />
              <mxPoint x="615" y="265" />
            </Array>
          </mxGeometry>
        </mxCell>
        <mxCell id="S6wTLcBWOWjdzUBLz-QY-48" value="RPI Runining" style="verticalLabelPosition=bottom;verticalAlign=top;html=1;shape=mxgraph.flowchart.on-page_reference;" vertex="1" parent="WIyWlLk6GJQsqaUBKTNV-1">
          <mxGeometry x="520" y="350" width="60" height="60" as="geometry" />
        </mxCell>
        <mxCell id="S6wTLcBWOWjdzUBLz-QY-49" style="edgeStyle=orthogonalEdgeStyle;rounded=0;orthogonalLoop=1;jettySize=auto;html=1;entryX=0.5;entryY=0;entryDx=0;entryDy=0;entryPerimeter=0;" edge="1" parent="WIyWlLk6GJQsqaUBKTNV-1" source="S6wTLcBWOWjdzUBLz-QY-51" target="S6wTLcBWOWjdzUBLz-QY-48">
          <mxGeometry relative="1" as="geometry" />
        </mxCell>
        <mxCell id="S6wTLcBWOWjdzUBLz-QY-50" style="edgeStyle=orthogonalEdgeStyle;rounded=0;orthogonalLoop=1;jettySize=auto;html=1;entryX=0;entryY=0.5;entryDx=0;entryDy=0;entryPerimeter=0;" edge="1" parent="WIyWlLk6GJQsqaUBKTNV-1" source="S6wTLcBWOWjdzUBLz-QY-51" target="S6wTLcBWOWjdzUBLz-QY-52">
          <mxGeometry relative="1" as="geometry">
            <Array as="points">
              <mxPoint x="480" y="265" />
              <mxPoint x="480" y="510" />
            </Array>
          </mxGeometry>
        </mxCell>
        <mxCell id="S6wTLcBWOWjdzUBLz-QY-51" value="Tændt eller slukkede" style="strokeWidth=2;html=1;shape=mxgraph.flowchart.decision;whiteSpace=wrap;" vertex="1" parent="WIyWlLk6GJQsqaUBKTNV-1">
          <mxGeometry x="505" y="220" width="90" height="90" as="geometry" />
        </mxCell>
        <mxCell id="S6wTLcBWOWjdzUBLz-QY-52" value="Slut" style="strokeWidth=2;html=1;shape=mxgraph.flowchart.start_1;whiteSpace=wrap;" vertex="1" parent="WIyWlLk6GJQsqaUBKTNV-1">
          <mxGeometry x="500" y="480" width="100" height="60" as="geometry" />
        </mxCell>
        <mxCell id="S6wTLcBWOWjdzUBLz-QY-53" style="edgeStyle=orthogonalEdgeStyle;rounded=0;orthogonalLoop=1;jettySize=auto;html=1;entryX=0;entryY=0.5;entryDx=0;entryDy=0;" edge="1" parent="WIyWlLk6GJQsqaUBKTNV-1" source="S6wTLcBWOWjdzUBLz-QY-54" target="S6wTLcBWOWjdzUBLz-QY-9">
          <mxGeometry relative="1" as="geometry" />
        </mxCell>
        <mxCell id="S6wTLcBWOWjdzUBLz-QY-54" value="Ja" style="text;html=1;strokeColor=none;fillColor=none;align=center;verticalAlign=middle;whiteSpace=wrap;rounded=0;" vertex="1" parent="WIyWlLk6GJQsqaUBKTNV-1">
          <mxGeometry x="490" y="310" width="60" height="30" as="geometry" />
        </mxCell>
        <mxCell id="S6wTLcBWOWjdzUBLz-QY-55" value="Nej" style="text;html=1;strokeColor=none;fillColor=none;align=center;verticalAlign=middle;whiteSpace=wrap;rounded=0;" vertex="1" parent="WIyWlLk6GJQsqaUBKTNV-1">
          <mxGeometry x="430" y="360" width="60" height="30" as="geometry" />
        </mxCell>
        <mxCell id="S6wTLcBWOWjdzUBLz-QY-56" style="edgeStyle=orthogonalEdgeStyle;rounded=0;orthogonalLoop=1;jettySize=auto;html=1;" edge="1" parent="WIyWlLk6GJQsqaUBKTNV-1" source="S6wTLcBWOWjdzUBLz-QY-58" target="S6wTLcBWOWjdzUBLz-QY-61">
          <mxGeometry relative="1" as="geometry" />
        </mxCell>
        <mxCell id="S6wTLcBWOWjdzUBLz-QY-57" style="edgeStyle=orthogonalEdgeStyle;rounded=0;orthogonalLoop=1;jettySize=auto;html=1;entryX=0;entryY=0.5;entryDx=0;entryDy=0;" edge="1" parent="WIyWlLk6GJQsqaUBKTNV-1" source="S6wTLcBWOWjdzUBLz-QY-58" target="S6wTLcBWOWjdzUBLz-QY-63">
          <mxGeometry relative="1" as="geometry" />
        </mxCell>
        <mxCell id="S6wTLcBWOWjdzUBLz-QY-58" value="Er RPI aktiv?" style="strokeWidth=2;html=1;shape=mxgraph.flowchart.decision;whiteSpace=wrap;" vertex="1" parent="WIyWlLk6GJQsqaUBKTNV-1">
          <mxGeometry x="170" y="207.5" width="76" height="75" as="geometry" />
        </mxCell>
        <mxCell id="S6wTLcBWOWjdzUBLz-QY-59" style="edgeStyle=orthogonalEdgeStyle;rounded=0;orthogonalLoop=1;jettySize=auto;html=1;entryX=0.5;entryY=0;entryDx=0;entryDy=0;entryPerimeter=0;" edge="1" parent="WIyWlLk6GJQsqaUBKTNV-1" source="S6wTLcBWOWjdzUBLz-QY-61" target="S6wTLcBWOWjdzUBLz-QY-62">
          <mxGeometry relative="1" as="geometry" />
        </mxCell>
        <mxCell id="S6wTLcBWOWjdzUBLz-QY-60" style="edgeStyle=orthogonalEdgeStyle;rounded=0;orthogonalLoop=1;jettySize=auto;html=1;entryX=0.5;entryY=0;entryDx=0;entryDy=0;" edge="1" parent="WIyWlLk6GJQsqaUBKTNV-1" source="S6wTLcBWOWjdzUBLz-QY-61" target="S6wTLcBWOWjdzUBLz-QY-68">
          <mxGeometry relative="1" as="geometry">
            <Array as="points">
              <mxPoint x="110" y="360" />
            </Array>
          </mxGeometry>
        </mxCell>
        <mxCell id="S6wTLcBWOWjdzUBLz-QY-61" value="Ny data indsamlede?" style="strokeWidth=2;html=1;shape=mxgraph.flowchart.decision;whiteSpace=wrap;" vertex="1" parent="WIyWlLk6GJQsqaUBKTNV-1">
          <mxGeometry x="158" y="310" width="100" height="100" as="geometry" />
        </mxCell>
        <mxCell id="S6wTLcBWOWjdzUBLz-QY-62" value="DataBase" style="strokeWidth=2;html=1;shape=mxgraph.flowchart.database;whiteSpace=wrap;" vertex="1" parent="WIyWlLk6GJQsqaUBKTNV-1">
          <mxGeometry x="178" y="450" width="60" height="60" as="geometry" />
        </mxCell>
        <mxCell id="S6wTLcBWOWjdzUBLz-QY-63" value="Slut" style="ellipse;whiteSpace=wrap;html=1;" vertex="1" parent="WIyWlLk6GJQsqaUBKTNV-1">
          <mxGeometry x="274" y="205" width="120" height="80" as="geometry" />
        </mxCell>
        <mxCell id="S6wTLcBWOWjdzUBLz-QY-64" value="Nej" style="text;html=1;strokeColor=none;fillColor=none;align=center;verticalAlign=middle;whiteSpace=wrap;rounded=0;" vertex="1" parent="WIyWlLk6GJQsqaUBKTNV-1">
          <mxGeometry x="224" y="207.5" width="60" height="30" as="geometry" />
        </mxCell>
        <mxCell id="S6wTLcBWOWjdzUBLz-QY-65" value="Ja" style="text;html=1;strokeColor=none;fillColor=none;align=center;verticalAlign=middle;whiteSpace=wrap;rounded=0;" vertex="1" parent="WIyWlLk6GJQsqaUBKTNV-1">
          <mxGeometry x="148" y="282.5" width="60" height="30" as="geometry" />
        </mxCell>
        <mxCell id="S6wTLcBWOWjdzUBLz-QY-66" value="Nej" style="text;html=1;strokeColor=none;fillColor=none;align=center;verticalAlign=middle;whiteSpace=wrap;rounded=0;" vertex="1" parent="WIyWlLk6GJQsqaUBKTNV-1">
          <mxGeometry x="198" y="410" width="60" height="30" as="geometry" />
        </mxCell>
        <mxCell id="S6wTLcBWOWjdzUBLz-QY-67" style="edgeStyle=orthogonalEdgeStyle;rounded=0;orthogonalLoop=1;jettySize=auto;html=1;" edge="1" parent="WIyWlLk6GJQsqaUBKTNV-1" source="S6wTLcBWOWjdzUBLz-QY-68" target="S6wTLcBWOWjdzUBLz-QY-62">
          <mxGeometry relative="1" as="geometry">
            <Array as="points">
              <mxPoint x="110" y="480" />
            </Array>
          </mxGeometry>
        </mxCell>
        <mxCell id="S6wTLcBWOWjdzUBLz-QY-68" value="Synkroniser og compile ny data" style="shape=process;whiteSpace=wrap;html=1;backgroundOutline=1;" vertex="1" parent="WIyWlLk6GJQsqaUBKTNV-1">
          <mxGeometry x="50" y="395" width="120" height="60" as="geometry" />
        </mxCell>
        <mxCell id="S6wTLcBWOWjdzUBLz-QY-69" value="Ja" style="text;html=1;strokeColor=none;fillColor=none;align=center;verticalAlign=middle;whiteSpace=wrap;rounded=0;" vertex="1" parent="WIyWlLk6GJQsqaUBKTNV-1">
          <mxGeometry x="110" y="330" width="60" height="30" as="geometry" />
        </mxCell>
        <mxCell id="S6wTLcBWOWjdzUBLz-QY-70" value="SQLite DataBase" style="verticalLabelPosition=bottom;verticalAlign=top;html=1;shape=mxgraph.flowchart.on-page_reference;" vertex="1" parent="WIyWlLk6GJQsqaUBKTNV-1">
          <mxGeometry x="-310" y="207.5" width="60" height="60" as="geometry" />
        </mxCell>
        <mxCell id="S6wTLcBWOWjdzUBLz-QY-71" style="edgeStyle=orthogonalEdgeStyle;rounded=0;orthogonalLoop=1;jettySize=auto;html=1;entryX=0.5;entryY=0;entryDx=0;entryDy=0;entryPerimeter=0;exitX=0.5;exitY=1;exitDx=0;exitDy=0;exitPerimeter=0;" edge="1" parent="WIyWlLk6GJQsqaUBKTNV-1" source="S6wTLcBWOWjdzUBLz-QY-70" target="S6wTLcBWOWjdzUBLz-QY-75">
          <mxGeometry relative="1" as="geometry">
            <mxPoint x="-280" y="270" as="sourcePoint" />
          </mxGeometry>
        </mxCell>
        <mxCell id="S6wTLcBWOWjdzUBLz-QY-72" style="edgeStyle=orthogonalEdgeStyle;rounded=0;orthogonalLoop=1;jettySize=auto;html=1;exitX=0;exitY=0.5;exitDx=0;exitDy=0;exitPerimeter=0;entryX=1;entryY=0.5;entryDx=0;entryDy=0;entryPerimeter=0;" edge="1" parent="WIyWlLk6GJQsqaUBKTNV-1" source="S6wTLcBWOWjdzUBLz-QY-73" target="S6wTLcBWOWjdzUBLz-QY-70">
          <mxGeometry relative="1" as="geometry" />
        </mxCell>
        <mxCell id="S6wTLcBWOWjdzUBLz-QY-73" value="RPI" style="verticalLabelPosition=bottom;verticalAlign=top;html=1;shape=mxgraph.flowchart.on-page_reference;" vertex="1" parent="WIyWlLk6GJQsqaUBKTNV-1">
          <mxGeometry x="-210" y="207.5" width="60" height="60" as="geometry" />
        </mxCell>
        <mxCell id="S6wTLcBWOWjdzUBLz-QY-74" style="edgeStyle=orthogonalEdgeStyle;rounded=0;orthogonalLoop=1;jettySize=auto;html=1;" edge="1" parent="WIyWlLk6GJQsqaUBKTNV-1" source="S6wTLcBWOWjdzUBLz-QY-75" target="S6wTLcBWOWjdzUBLz-QY-77">
          <mxGeometry relative="1" as="geometry" />
        </mxCell>
        <mxCell id="S6wTLcBWOWjdzUBLz-QY-75" value="HTML" style="verticalLabelPosition=bottom;verticalAlign=top;html=1;shape=mxgraph.flowchart.on-page_reference;" vertex="1" parent="WIyWlLk6GJQsqaUBKTNV-1">
          <mxGeometry x="-310" y="320" width="60" height="60" as="geometry" />
        </mxCell>
        <mxCell id="S6wTLcBWOWjdzUBLz-QY-76" style="edgeStyle=orthogonalEdgeStyle;rounded=0;orthogonalLoop=1;jettySize=auto;html=1;" edge="1" parent="WIyWlLk6GJQsqaUBKTNV-1" source="S6wTLcBWOWjdzUBLz-QY-77" target="S6wTLcBWOWjdzUBLz-QY-80">
          <mxGeometry relative="1" as="geometry" />
        </mxCell>
        <mxCell id="S6wTLcBWOWjdzUBLz-QY-77" value="ESP32 Main" style="verticalLabelPosition=bottom;verticalAlign=top;html=1;shape=mxgraph.flowchart.on-page_reference;" vertex="1" parent="WIyWlLk6GJQsqaUBKTNV-1">
          <mxGeometry x="-210" y="320" width="60" height="60" as="geometry" />
        </mxCell>
        <mxCell id="S6wTLcBWOWjdzUBLz-QY-78" style="edgeStyle=orthogonalEdgeStyle;rounded=0;orthogonalLoop=1;jettySize=auto;html=1;entryX=0.5;entryY=1;entryDx=0;entryDy=0;exitX=1;exitY=0.5;exitDx=0;exitDy=0;exitPerimeter=0;" edge="1" parent="WIyWlLk6GJQsqaUBKTNV-1" source="S6wTLcBWOWjdzUBLz-QY-80" target="S6wTLcBWOWjdzUBLz-QY-83">
          <mxGeometry relative="1" as="geometry">
            <Array as="points">
              <mxPoint x="-60" y="480" />
            </Array>
          </mxGeometry>
        </mxCell>
        <mxCell id="S6wTLcBWOWjdzUBLz-QY-79" style="edgeStyle=orthogonalEdgeStyle;rounded=0;orthogonalLoop=1;jettySize=auto;html=1;" edge="1" parent="WIyWlLk6GJQsqaUBKTNV-1" source="S6wTLcBWOWjdzUBLz-QY-80" target="S6wTLcBWOWjdzUBLz-QY-86">
          <mxGeometry relative="1" as="geometry" />
        </mxCell>
        <mxCell id="S6wTLcBWOWjdzUBLz-QY-80" value="Fejl med ESP32?" style="strokeWidth=2;html=1;shape=mxgraph.flowchart.decision;whiteSpace=wrap;" vertex="1" parent="WIyWlLk6GJQsqaUBKTNV-1">
          <mxGeometry x="-230" y="430" width="100" height="100" as="geometry" />
        </mxCell>
        <mxCell id="S6wTLcBWOWjdzUBLz-QY-81" value="Ja" style="text;html=1;strokeColor=none;fillColor=none;align=center;verticalAlign=middle;whiteSpace=wrap;rounded=0;" vertex="1" parent="WIyWlLk6GJQsqaUBKTNV-1">
          <mxGeometry x="-160" y="440" width="60" height="30" as="geometry" />
        </mxCell>
        <mxCell id="S6wTLcBWOWjdzUBLz-QY-82" style="edgeStyle=orthogonalEdgeStyle;rounded=0;orthogonalLoop=1;jettySize=auto;html=1;" edge="1" parent="WIyWlLk6GJQsqaUBKTNV-1" source="S6wTLcBWOWjdzUBLz-QY-83">
          <mxGeometry relative="1" as="geometry">
            <mxPoint x="-180" y="410" as="targetPoint" />
          </mxGeometry>
        </mxCell>
        <mxCell id="S6wTLcBWOWjdzUBLz-QY-83" value="Sleep 0.2 sec + Except&lt;br&gt;Forsøg igen" style="shape=process;whiteSpace=wrap;html=1;backgroundOutline=1;" vertex="1" parent="WIyWlLk6GJQsqaUBKTNV-1">
          <mxGeometry x="-120" y="380" width="120" height="60" as="geometry" />
        </mxCell>
        <mxCell id="S6wTLcBWOWjdzUBLz-QY-84" value="End ShutDown&lt;br&gt;Sluk for RPI" style="strokeWidth=2;html=1;shape=mxgraph.flowchart.start_1;whiteSpace=wrap;" vertex="1" parent="WIyWlLk6GJQsqaUBKTNV-1">
          <mxGeometry x="-110" y="545" width="100" height="60" as="geometry" />
        </mxCell>
        <mxCell id="S6wTLcBWOWjdzUBLz-QY-85" style="edgeStyle=orthogonalEdgeStyle;rounded=0;orthogonalLoop=1;jettySize=auto;html=1;entryX=0;entryY=0.5;entryDx=0;entryDy=0;entryPerimeter=0;" edge="1" parent="WIyWlLk6GJQsqaUBKTNV-1" source="S6wTLcBWOWjdzUBLz-QY-86" target="S6wTLcBWOWjdzUBLz-QY-84">
          <mxGeometry relative="1" as="geometry" />
        </mxCell>
        <mxCell id="S6wTLcBWOWjdzUBLz-QY-86" value="Check DataBase Sync.&lt;br&gt;Syncroniser databasen med ny data indsendt fra ESP32" style="shape=process;whiteSpace=wrap;html=1;backgroundOutline=1;" vertex="1" parent="WIyWlLk6GJQsqaUBKTNV-1">
          <mxGeometry x="-225" y="555" width="90" height="125" as="geometry" />
        </mxCell>
        <mxCell id="S6wTLcBWOWjdzUBLz-QY-87" value="Nej" style="text;html=1;strokeColor=none;fillColor=none;align=center;verticalAlign=middle;whiteSpace=wrap;rounded=0;" vertex="1" parent="WIyWlLk6GJQsqaUBKTNV-1">
          <mxGeometry x="-190" y="525" width="60" height="30" as="geometry" />
        </mxCell>
        <mxCell id="S6wTLcBWOWjdzUBLz-QY-88" style="edgeStyle=orthogonalEdgeStyle;rounded=0;orthogonalLoop=1;jettySize=auto;html=1;entryX=1;entryY=0.5;entryDx=0;entryDy=0;" edge="1" parent="WIyWlLk6GJQsqaUBKTNV-1" source="S6wTLcBWOWjdzUBLz-QY-90" target="S6wTLcBWOWjdzUBLz-QY-30">
          <mxGeometry relative="1" as="geometry">
            <Array as="points">
              <mxPoint x="1370" y="440" />
            </Array>
          </mxGeometry>
        </mxCell>
        <mxCell id="S6wTLcBWOWjdzUBLz-QY-89" style="edgeStyle=orthogonalEdgeStyle;rounded=0;orthogonalLoop=1;jettySize=auto;html=1;entryX=1;entryY=0.5;entryDx=0;entryDy=0;" edge="1" parent="WIyWlLk6GJQsqaUBKTNV-1" source="S6wTLcBWOWjdzUBLz-QY-90" target="S6wTLcBWOWjdzUBLz-QY-93">
          <mxGeometry relative="1" as="geometry">
            <Array as="points">
              <mxPoint x="1370" y="710" />
            </Array>
          </mxGeometry>
        </mxCell>
        <mxCell id="S6wTLcBWOWjdzUBLz-QY-90" value="If measure again" style="strokeWidth=2;html=1;shape=mxgraph.flowchart.decision;whiteSpace=wrap;" vertex="1" parent="WIyWlLk6GJQsqaUBKTNV-1">
          <mxGeometry x="1320" y="575" width="100" height="100" as="geometry" />
        </mxCell>
        <mxCell id="S6wTLcBWOWjdzUBLz-QY-91" value="ShutDown" style="strokeWidth=2;html=1;shape=mxgraph.flowchart.start_1;whiteSpace=wrap;" vertex="1" parent="WIyWlLk6GJQsqaUBKTNV-1">
          <mxGeometry x="1130" y="790" width="100" height="60" as="geometry" />
        </mxCell>
        <mxCell id="S6wTLcBWOWjdzUBLz-QY-92" style="edgeStyle=orthogonalEdgeStyle;rounded=0;orthogonalLoop=1;jettySize=auto;html=1;" edge="1" parent="WIyWlLk6GJQsqaUBKTNV-1" source="S6wTLcBWOWjdzUBLz-QY-93" target="S6wTLcBWOWjdzUBLz-QY-91">
          <mxGeometry relative="1" as="geometry" />
        </mxCell>
        <mxCell id="S6wTLcBWOWjdzUBLz-QY-93" value="End Script" style="verticalLabelPosition=bottom;verticalAlign=top;html=1;shape=process;whiteSpace=wrap;rounded=1;size=0.14;arcSize=6;" vertex="1" parent="WIyWlLk6GJQsqaUBKTNV-1">
          <mxGeometry x="1140" y="690" width="80" height="40" as="geometry" />
        </mxCell>
        <mxCell id="S6wTLcBWOWjdzUBLz-QY-94" value="Ja" style="text;html=1;strokeColor=none;fillColor=none;align=center;verticalAlign=middle;whiteSpace=wrap;rounded=0;" vertex="1" parent="WIyWlLk6GJQsqaUBKTNV-1">
          <mxGeometry x="1040" y="575" width="60" height="30" as="geometry" />
        </mxCell>
        <mxCell id="S6wTLcBWOWjdzUBLz-QY-95" value="Nej" style="text;html=1;strokeColor=none;fillColor=none;align=center;verticalAlign=middle;whiteSpace=wrap;rounded=0;" vertex="1" parent="WIyWlLk6GJQsqaUBKTNV-1">
          <mxGeometry x="950" y="510" width="60" height="30" as="geometry" />
        </mxCell>
        <mxCell id="S6wTLcBWOWjdzUBLz-QY-96" value="Ja" style="text;html=1;strokeColor=none;fillColor=none;align=center;verticalAlign=middle;whiteSpace=wrap;rounded=0;" vertex="1" parent="WIyWlLk6GJQsqaUBKTNV-1">
          <mxGeometry x="1370" y="545" width="60" height="30" as="geometry" />
        </mxCell>
        <mxCell id="S6wTLcBWOWjdzUBLz-QY-97" value="Nej" style="text;html=1;strokeColor=none;fillColor=none;align=center;verticalAlign=middle;whiteSpace=wrap;rounded=0;" vertex="1" parent="WIyWlLk6GJQsqaUBKTNV-1">
          <mxGeometry x="1370" y="670" width="60" height="30" as="geometry" />
        </mxCell>
      </root>
    </mxGraphModel>
  </diagram>
  <diagram id="y0RO2QIdWkfr7bkaaMKn" name="Side-3">
    <mxGraphModel grid="1" page="1" gridSize="10" guides="1" tooltips="1" connect="1" arrows="1" fold="1" pageScale="1" pageWidth="827" pageHeight="1169" math="0" shadow="0">
      <root>
        <mxCell id="0" />
        <mxCell id="1" parent="0" />
        <mxCell id="xu-DSDwJ9b2Ixbz6OqK8-44" style="edgeStyle=orthogonalEdgeStyle;rounded=0;orthogonalLoop=1;jettySize=auto;html=1;exitX=1;exitY=0.25;exitDx=0;exitDy=0;shape=link;" edge="1" parent="1" source="gC3y5jD_J5kbucNTbt4g-1" target="xu-DSDwJ9b2Ixbz6OqK8-4">
          <mxGeometry relative="1" as="geometry" />
        </mxCell>
        <mxCell id="xu-DSDwJ9b2Ixbz6OqK8-45" style="edgeStyle=orthogonalEdgeStyle;rounded=0;orthogonalLoop=1;jettySize=auto;html=1;exitX=1;exitY=0.75;exitDx=0;exitDy=0;entryX=0;entryY=0.5;entryDx=0;entryDy=0;shape=link;" edge="1" parent="1" source="gC3y5jD_J5kbucNTbt4g-1" target="xu-DSDwJ9b2Ixbz6OqK8-5">
          <mxGeometry relative="1" as="geometry" />
        </mxCell>
        <mxCell id="gC3y5jD_J5kbucNTbt4g-1" value="LDO&lt;br&gt;Reducer serial forbundet batteri til 5 volt" style="rounded=0;whiteSpace=wrap;html=1;" vertex="1" parent="1">
          <mxGeometry x="115" y="120" width="85" height="80" as="geometry" />
        </mxCell>
        <mxCell id="gC3y5jD_J5kbucNTbt4g-3" value="LiPo batteri&lt;br&gt;3-4.2 V&lt;br&gt;3.7 V gennemsnit&lt;br&gt;1800mAh&lt;br&gt;x2" style="rounded=0;whiteSpace=wrap;html=1;" vertex="1" parent="1">
          <mxGeometry y="5" width="120" height="70" as="geometry" />
        </mxCell>
        <mxCell id="xu-DSDwJ9b2Ixbz6OqK8-76" style="edgeStyle=orthogonalEdgeStyle;rounded=0;orthogonalLoop=1;jettySize=auto;html=1;exitX=1;exitY=0.5;exitDx=0;exitDy=0;entryX=0.25;entryY=1;entryDx=0;entryDy=0;" edge="1" parent="1" source="gC3y5jD_J5kbucNTbt4g-12" target="YFtryLqAURfOIIb6y7VU-1">
          <mxGeometry relative="1" as="geometry" />
        </mxCell>
        <mxCell id="gC3y5jD_J5kbucNTbt4g-12" value="DHT 11&lt;br&gt;Signal til Pin 25" style="whiteSpace=wrap;html=1;aspect=fixed;" vertex="1" parent="1">
          <mxGeometry x="200" y="190" width="120" height="120" as="geometry" />
        </mxCell>
        <mxCell id="xu-DSDwJ9b2Ixbz6OqK8-75" style="edgeStyle=orthogonalEdgeStyle;rounded=0;orthogonalLoop=1;jettySize=auto;html=1;entryX=1;entryY=0.75;entryDx=0;entryDy=0;" edge="1" parent="1" source="gC3y5jD_J5kbucNTbt4g-13" target="YFtryLqAURfOIIb6y7VU-1">
          <mxGeometry relative="1" as="geometry" />
        </mxCell>
        <mxCell id="gC3y5jD_J5kbucNTbt4g-13" value="MQ135&lt;br&gt;Signal Til pin 26" style="whiteSpace=wrap;html=1;aspect=fixed;" vertex="1" parent="1">
          <mxGeometry x="200" y="330" width="120" height="120" as="geometry" />
        </mxCell>
        <mxCell id="xu-DSDwJ9b2Ixbz6OqK8-79" style="edgeStyle=orthogonalEdgeStyle;orthogonalLoop=1;jettySize=auto;html=1;entryX=0;entryY=0.5;entryDx=0;entryDy=0;dashed=1;dashPattern=12 12;curved=1;" edge="1" parent="1" source="YFtryLqAURfOIIb6y7VU-1" target="xu-DSDwJ9b2Ixbz6OqK8-78">
          <mxGeometry relative="1" as="geometry" />
        </mxCell>
        <mxCell id="YFtryLqAURfOIIb6y7VU-1" value="ESP32" style="shape=process;whiteSpace=wrap;html=1;backgroundOutline=1;direction=south;" vertex="1" parent="1">
          <mxGeometry x="440" y="200" width="120" height="160" as="geometry" />
        </mxCell>
        <mxCell id="oz5qgSKp0xJEBitgBAFr-1" value="Serial forbundet&lt;br&gt;batterier" style="text;html=1;align=center;verticalAlign=middle;resizable=0;points=[];autosize=1;strokeColor=none;fillColor=none;" vertex="1" parent="1">
          <mxGeometry x="120" y="20" width="110" height="40" as="geometry" />
        </mxCell>
        <mxCell id="xu-DSDwJ9b2Ixbz6OqK8-48" style="edgeStyle=orthogonalEdgeStyle;rounded=0;orthogonalLoop=1;jettySize=auto;html=1;entryX=0;entryY=0.25;entryDx=0;entryDy=0;shape=link;" edge="1" parent="1" source="xu-DSDwJ9b2Ixbz6OqK8-4" target="YFtryLqAURfOIIb6y7VU-1">
          <mxGeometry relative="1" as="geometry" />
        </mxCell>
        <mxCell id="xu-DSDwJ9b2Ixbz6OqK8-4" value="VCC&lt;br&gt;5V" style="rhombus;whiteSpace=wrap;html=1;" vertex="1" parent="1">
          <mxGeometry x="520" y="120" width="40" height="40" as="geometry" />
        </mxCell>
        <mxCell id="xu-DSDwJ9b2Ixbz6OqK8-47" style="edgeStyle=orthogonalEdgeStyle;rounded=0;orthogonalLoop=1;jettySize=auto;html=1;entryX=0;entryY=0.75;entryDx=0;entryDy=0;shape=link;" edge="1" parent="1" source="xu-DSDwJ9b2Ixbz6OqK8-5" target="YFtryLqAURfOIIb6y7VU-1">
          <mxGeometry relative="1" as="geometry" />
        </mxCell>
        <mxCell id="xu-DSDwJ9b2Ixbz6OqK8-5" value="GND" style="rhombus;whiteSpace=wrap;html=1;" vertex="1" parent="1">
          <mxGeometry x="450" y="150" width="40" height="40" as="geometry" />
        </mxCell>
        <mxCell id="xu-DSDwJ9b2Ixbz6OqK8-11" style="edgeStyle=orthogonalEdgeStyle;rounded=0;orthogonalLoop=1;jettySize=auto;html=1;exitX=0.5;exitY=1;exitDx=0;exitDy=0;entryX=0;entryY=0.5;entryDx=0;entryDy=0;shape=link;" edge="1" parent="1" source="xu-DSDwJ9b2Ixbz6OqK8-8" target="gC3y5jD_J5kbucNTbt4g-1">
          <mxGeometry relative="1" as="geometry">
            <mxPoint x="70" y="140" as="targetPoint" />
            <Array as="points">
              <mxPoint x="70" y="150" />
            </Array>
          </mxGeometry>
        </mxCell>
        <mxCell id="xu-DSDwJ9b2Ixbz6OqK8-8" value="VCC" style="rhombus;whiteSpace=wrap;html=1;" vertex="1" parent="1">
          <mxGeometry x="50" y="80" width="40" height="40" as="geometry" />
        </mxCell>
        <mxCell id="xu-DSDwJ9b2Ixbz6OqK8-12" style="edgeStyle=orthogonalEdgeStyle;rounded=0;orthogonalLoop=1;jettySize=auto;html=1;entryX=0;entryY=0.75;entryDx=0;entryDy=0;shape=link;" edge="1" parent="1" source="xu-DSDwJ9b2Ixbz6OqK8-9" target="gC3y5jD_J5kbucNTbt4g-1">
          <mxGeometry relative="1" as="geometry">
            <mxPoint x="20" y="180" as="targetPoint" />
            <Array as="points">
              <mxPoint x="20" y="165" />
            </Array>
          </mxGeometry>
        </mxCell>
        <mxCell id="xu-DSDwJ9b2Ixbz6OqK8-9" value="GND" style="rhombus;whiteSpace=wrap;html=1;" vertex="1" parent="1">
          <mxGeometry y="80" width="40" height="40" as="geometry" />
        </mxCell>
        <mxCell id="xu-DSDwJ9b2Ixbz6OqK8-73" style="edgeStyle=orthogonalEdgeStyle;rounded=0;orthogonalLoop=1;jettySize=auto;html=1;entryX=1;entryY=0.25;entryDx=0;entryDy=0;" edge="1" parent="1" source="xu-DSDwJ9b2Ixbz6OqK8-21" target="YFtryLqAURfOIIb6y7VU-1">
          <mxGeometry relative="1" as="geometry" />
        </mxCell>
        <mxCell id="xu-DSDwJ9b2Ixbz6OqK8-74" style="edgeStyle=orthogonalEdgeStyle;rounded=0;orthogonalLoop=1;jettySize=auto;html=1;exitX=1;exitY=0.75;exitDx=0;exitDy=0;entryX=1;entryY=0.5;entryDx=0;entryDy=0;" edge="1" parent="1" source="xu-DSDwJ9b2Ixbz6OqK8-21" target="YFtryLqAURfOIIb6y7VU-1">
          <mxGeometry relative="1" as="geometry" />
        </mxCell>
        <mxCell id="xu-DSDwJ9b2Ixbz6OqK8-21" value="GPS&lt;br&gt;RX Pin 16&lt;br&gt;TX pin 17" style="whiteSpace=wrap;html=1;aspect=fixed;" vertex="1" parent="1">
          <mxGeometry x="200" y="464.5" width="120" height="120" as="geometry" />
        </mxCell>
        <mxCell id="xu-DSDwJ9b2Ixbz6OqK8-55" style="edgeStyle=orthogonalEdgeStyle;rounded=0;orthogonalLoop=1;jettySize=auto;html=1;entryX=0.5;entryY=1;entryDx=0;entryDy=0;shape=link;" edge="1" parent="1" source="xu-DSDwJ9b2Ixbz6OqK8-49" target="gC3y5jD_J5kbucNTbt4g-1">
          <mxGeometry relative="1" as="geometry" />
        </mxCell>
        <mxCell id="xu-DSDwJ9b2Ixbz6OqK8-57" style="edgeStyle=orthogonalEdgeStyle;rounded=0;orthogonalLoop=1;jettySize=auto;html=1;exitX=1;exitY=0;exitDx=0;exitDy=0;shape=link;entryX=0;entryY=0.5;entryDx=0;entryDy=0;" edge="1" parent="1" source="xu-DSDwJ9b2Ixbz6OqK8-49" target="gC3y5jD_J5kbucNTbt4g-12">
          <mxGeometry relative="1" as="geometry">
            <mxPoint x="170" y="250" as="targetPoint" />
            <Array as="points">
              <mxPoint x="170" y="330" />
              <mxPoint x="170" y="250" />
            </Array>
          </mxGeometry>
        </mxCell>
        <mxCell id="xu-DSDwJ9b2Ixbz6OqK8-59" style="edgeStyle=orthogonalEdgeStyle;rounded=0;orthogonalLoop=1;jettySize=auto;html=1;exitX=1;exitY=1;exitDx=0;exitDy=0;entryX=0;entryY=0.25;entryDx=0;entryDy=0;shape=link;" edge="1" parent="1" source="xu-DSDwJ9b2Ixbz6OqK8-49" target="gC3y5jD_J5kbucNTbt4g-13">
          <mxGeometry relative="1" as="geometry" />
        </mxCell>
        <mxCell id="xu-DSDwJ9b2Ixbz6OqK8-61" style="edgeStyle=orthogonalEdgeStyle;rounded=0;orthogonalLoop=1;jettySize=auto;html=1;exitX=0.5;exitY=1;exitDx=0;exitDy=0;entryX=0;entryY=0.5;entryDx=0;entryDy=0;shape=link;" edge="1" parent="1" source="xu-DSDwJ9b2Ixbz6OqK8-49" target="xu-DSDwJ9b2Ixbz6OqK8-21">
          <mxGeometry relative="1" as="geometry" />
        </mxCell>
        <mxCell id="xu-DSDwJ9b2Ixbz6OqK8-49" value="VCC" style="rhombus;whiteSpace=wrap;html=1;" vertex="1" parent="1">
          <mxGeometry x="80" y="320" width="40" height="40" as="geometry" />
        </mxCell>
        <mxCell id="xu-DSDwJ9b2Ixbz6OqK8-56" style="edgeStyle=orthogonalEdgeStyle;rounded=0;orthogonalLoop=1;jettySize=auto;html=1;entryX=0.25;entryY=1;entryDx=0;entryDy=0;shape=link;" edge="1" parent="1" source="xu-DSDwJ9b2Ixbz6OqK8-50" target="gC3y5jD_J5kbucNTbt4g-1">
          <mxGeometry relative="1" as="geometry">
            <Array as="points">
              <mxPoint x="120" y="240" />
              <mxPoint x="120" y="200" />
            </Array>
          </mxGeometry>
        </mxCell>
        <mxCell id="xu-DSDwJ9b2Ixbz6OqK8-58" style="edgeStyle=orthogonalEdgeStyle;rounded=0;orthogonalLoop=1;jettySize=auto;html=1;exitX=1;exitY=0;exitDx=0;exitDy=0;entryX=0;entryY=0.833;entryDx=0;entryDy=0;entryPerimeter=0;shape=link;" edge="1" parent="1" source="xu-DSDwJ9b2Ixbz6OqK8-50" target="gC3y5jD_J5kbucNTbt4g-12">
          <mxGeometry relative="1" as="geometry" />
        </mxCell>
        <mxCell id="xu-DSDwJ9b2Ixbz6OqK8-60" style="edgeStyle=orthogonalEdgeStyle;rounded=0;orthogonalLoop=1;jettySize=auto;html=1;exitX=1;exitY=1;exitDx=0;exitDy=0;entryX=0;entryY=0.75;entryDx=0;entryDy=0;shape=link;" edge="1" parent="1" source="xu-DSDwJ9b2Ixbz6OqK8-50" target="gC3y5jD_J5kbucNTbt4g-13">
          <mxGeometry relative="1" as="geometry" />
        </mxCell>
        <mxCell id="xu-DSDwJ9b2Ixbz6OqK8-62" style="edgeStyle=orthogonalEdgeStyle;rounded=0;orthogonalLoop=1;jettySize=auto;html=1;exitX=0.5;exitY=1;exitDx=0;exitDy=0;entryX=0;entryY=0.75;entryDx=0;entryDy=0;shape=link;" edge="1" parent="1" source="xu-DSDwJ9b2Ixbz6OqK8-50" target="xu-DSDwJ9b2Ixbz6OqK8-21">
          <mxGeometry relative="1" as="geometry" />
        </mxCell>
        <mxCell id="xu-DSDwJ9b2Ixbz6OqK8-50" value="GND" style="rhombus;whiteSpace=wrap;html=1;" vertex="1" parent="1">
          <mxGeometry x="40" y="400" width="40" height="40" as="geometry" />
        </mxCell>
        <mxCell id="xu-DSDwJ9b2Ixbz6OqK8-66" value="+" style="text;html=1;align=center;verticalAlign=middle;resizable=0;points=[];autosize=1;strokeColor=none;fillColor=none;" vertex="1" parent="1">
          <mxGeometry x="165" y="495" width="30" height="30" as="geometry" />
        </mxCell>
        <mxCell id="xu-DSDwJ9b2Ixbz6OqK8-68" value="-" style="text;html=1;align=center;verticalAlign=middle;resizable=0;points=[];autosize=1;strokeColor=none;fillColor=none;" vertex="1" parent="1">
          <mxGeometry x="165" y="525" width="30" height="30" as="geometry" />
        </mxCell>
        <mxCell id="xu-DSDwJ9b2Ixbz6OqK8-69" value="+" style="text;html=1;align=center;verticalAlign=middle;resizable=0;points=[];autosize=1;strokeColor=none;fillColor=none;" vertex="1" parent="1">
          <mxGeometry x="175" y="325" width="30" height="30" as="geometry" />
        </mxCell>
        <mxCell id="xu-DSDwJ9b2Ixbz6OqK8-70" value="-" style="text;html=1;align=center;verticalAlign=middle;resizable=0;points=[];autosize=1;strokeColor=none;fillColor=none;" vertex="1" parent="1">
          <mxGeometry x="175" y="385" width="30" height="30" as="geometry" />
        </mxCell>
        <mxCell id="xu-DSDwJ9b2Ixbz6OqK8-71" value="+" style="text;html=1;align=center;verticalAlign=middle;resizable=0;points=[];autosize=1;strokeColor=none;fillColor=none;" vertex="1" parent="1">
          <mxGeometry x="170" y="220" width="30" height="30" as="geometry" />
        </mxCell>
        <mxCell id="xu-DSDwJ9b2Ixbz6OqK8-72" value="-" style="text;html=1;align=center;verticalAlign=middle;resizable=0;points=[];autosize=1;strokeColor=none;fillColor=none;" vertex="1" parent="1">
          <mxGeometry x="170" y="265" width="30" height="30" as="geometry" />
        </mxCell>
        <mxCell id="xu-DSDwJ9b2Ixbz6OqK8-77" value="RPI&lt;br&gt;Server Side" style="shape=dataStorage;whiteSpace=wrap;html=1;fixedSize=1;" vertex="1" parent="1">
          <mxGeometry x="690" y="50" width="100" height="80" as="geometry" />
        </mxCell>
        <mxCell id="xu-DSDwJ9b2Ixbz6OqK8-80" style="edgeStyle=orthogonalEdgeStyle;orthogonalLoop=1;jettySize=auto;html=1;curved=1;dashed=1;dashPattern=12 12;" edge="1" parent="1" source="xu-DSDwJ9b2Ixbz6OqK8-78" target="xu-DSDwJ9b2Ixbz6OqK8-77">
          <mxGeometry relative="1" as="geometry" />
        </mxCell>
        <mxCell id="xu-DSDwJ9b2Ixbz6OqK8-78" value="Data Fra moduler" style="triangle;whiteSpace=wrap;html=1;direction=north;" vertex="1" parent="1">
          <mxGeometry x="700" y="230" width="110" height="90" as="geometry" />
        </mxCell>
      </root>
    </mxGraphModel>
  </diagram>
</mxfile>
